<svg width="374" height="374" viewBox="0 0 374 374" fill="none" xmlns="http://www.w3.org/2000/svg">
<g clip-path="url(#clip0_81_3)">
<path d="M184.224 1.16875C181.96 2.77578 181.814 3.06797 169.907 33.7477C163.26 50.7676 159.242 62.2359 159.242 63.843C159.242 65.6691 159.827 67.1301 161.361 68.8102L163.479 71.2207H187H210.521L212.639 68.8102C214.173 67.1301 214.758 65.6691 214.758 63.843C214.758 61.5785 195.546 10.3727 192.405 4.23672C191.237 2.04531 188.68 -2.90573e-06 187 -2.90573e-06C186.343 -2.90573e-06 185.101 0.511325 184.224 1.16875Z" fill="#F5DE12"/>
<path d="M55.2234 54.8582C53.9086 55.8809 53.3242 57.0496 53.3242 58.5836C53.3242 59.8254 58.4375 72.3895 65.0848 87.5102C79.6941 120.746 79.1098 119.578 82.1777 121.039C86.9258 123.303 88.6059 122.207 105.699 105.041C115.487 95.1801 121.331 88.752 121.623 87.4371C122.28 84.8074 121.55 82.0317 119.578 80.0594C117.605 78.0871 61.4324 53.3242 58.9488 53.3242C57.9992 53.3242 56.3191 53.9817 55.2234 54.8582Z" fill="#F5DE12"/>
<path d="M284.152 66.1074C267.278 73.5582 254.787 79.475 253.984 80.4246C252.304 82.4699 251.719 84.9535 252.377 87.4371C252.669 88.752 258.513 95.1801 268.301 105.041C285.394 122.207 287.074 123.303 291.822 121.039C294.89 119.578 294.306 120.746 308.915 87.5102C315.562 72.3895 320.676 59.8254 320.676 58.5836C320.676 55.9539 317.827 53.3242 314.905 53.3242C313.882 53.3242 300.003 59.0949 284.152 66.1074Z" fill="#F5DE12"/>
<path d="M173.121 92.4043C152.595 95.4723 134.187 104.749 119.505 119.505C85.8299 153.106 81.8854 205.627 110.155 243.757C141.784 286.344 201.317 295.329 243.757 263.845C286.344 232.216 295.328 172.683 263.845 130.243C242.735 101.827 207.818 87.218 173.121 92.4043Z" fill="#F5DE12"/>
<path d="M32.9441 170.199C17.6042 176.189 4.16362 181.595 3.21401 182.252C-0.730518 184.809 -0.730518 189.191 3.21401 191.748C6.79331 194.086 61.2132 214.758 63.8429 214.758C65.6691 214.758 67.13 214.173 68.8101 212.639L71.2207 210.521V187V163.479L68.8101 161.361C67.057 159.827 65.7421 159.242 63.6968 159.242C61.9437 159.242 50.8406 163.187 32.9441 170.199Z" fill="#F5DE12"/>
<path d="M305.19 161.361L302.779 163.479V187V210.521L305.19 212.639C306.87 214.173 308.331 214.758 310.157 214.758C312.787 214.758 367.207 194.086 370.786 191.748C371.809 191.091 372.977 189.776 373.416 188.753C374.438 186.562 373.416 183.932 370.786 182.252C367.207 179.914 312.787 159.242 310.157 159.242C308.331 159.242 306.87 159.827 305.19 161.361Z" fill="#F5DE12"/>
<path d="M81.6664 253.18C79.1098 254.495 79.3289 254.13 65.0848 286.49C58.4375 301.611 53.3242 314.175 53.3242 315.416C53.3242 318.046 56.173 320.676 58.9488 320.676C61.4324 320.676 117.605 295.913 119.578 293.941C121.55 291.968 122.28 289.193 121.623 286.49C121.039 284.006 91.893 254.422 88.6059 253.034C85.6109 251.72 84.15 251.793 81.6664 253.18Z" fill="#F5DE12"/>
<path d="M285.248 253.034C282.034 254.495 252.961 284.079 252.377 286.49C251.719 289.193 252.45 291.968 254.422 293.941C256.394 295.913 312.568 320.676 315.051 320.676C317.827 320.676 320.676 318.046 320.676 315.416C320.676 313.663 300.661 266.767 295.767 256.979C294.379 254.203 291.165 252.012 288.754 252.012C288.024 252.085 286.49 252.523 285.248 253.034Z" fill="#F5DE12"/>
<path d="M163.917 303.145C161.434 304.167 159.242 307.454 159.242 310.23C159.242 312.787 179.914 367.28 182.252 370.786C184.809 374.73 189.191 374.73 191.748 370.786C194.086 367.207 214.758 312.787 214.758 310.157C214.758 308.331 214.173 306.87 212.639 305.19L210.521 302.779L187.95 302.633C175.605 302.56 164.721 302.779 163.917 303.145Z" fill="#F5DE12"/>
</g>
<defs>
<clipPath id="clip0_81_3">
<rect width="374" height="374" fill="white"/>
</clipPath>
</defs>
</svg>
